# Blender v2.90.0 OBJ File: ''
# www.blender.org
o Playing_field_Plane.002
v 2.500000 0.000002 -10.000000
v 15.000000 -0.000002 10.000000
v 2.500000 -0.000002 10.000000
v -2.500000 0.000002 -10.000000
v -2.500000 -0.000002 10.000000
v -15.000000 0.000002 -10.000000
v -15.000000 -0.000002 10.000000
v 15.000000 0.000002 -10.000000
vt 0.750000 1.000000
vt 0.750000 0.000000
vt 1.000000 0.000000
vt 0.000000 1.000000
vt 0.000000 0.000000
vt 0.250000 0.000000
vt 1.000000 1.000000
vt 0.250000 1.000000
vn 0.0000 1.0000 0.0000
s 1
f 1/1/1 3/2/1 2/3/1
f 6/4/1 7/5/1 5/6/1
f 1/1/1 2/3/1 8/7/1
f 6/4/1 5/6/1 4/8/1
