# Blender v2.93.1 OBJ File: ''
# www.blender.org
mtllib map_ground.mtl
o Playing_field_Plane.002
v 6.250000 0.000009 -25.000000
v 6.250000 -0.000009 25.000000
v 37.500000 -0.000009 25.000000
v -37.500000 0.000009 -25.000000
v -37.500000 -0.000009 25.000000
v -6.250000 -0.000009 25.000000
v 37.500000 0.000009 -25.000000
v -6.250000 0.000009 -25.000000
vt 0.750000 1.000000
vt 0.750000 0.000000
vt 1.000000 0.000000
vt 0.000000 1.000000
vt 0.000000 0.000000
vt 0.250000 0.000000
vt 1.000000 1.000000
vt 0.250000 1.000000
vn 0.0000 1.0000 0.0000
usemtl Default_OBJ.001
s 1
f 1/1/1 2/2/1 3/3/1
f 4/4/1 5/5/1 6/6/1
f 1/1/1 3/3/1 7/7/1
f 4/4/1 6/6/1 8/8/1
