# Blender v2.90.0 OBJ File: ''
# www.blender.org
mtllib map_base.mtl
o Playing_field_Plane.002
v 2.500000 0.000002 -10.000000
v 15.000000 -0.000002 10.000000
v 2.500000 -0.000002 10.000000
v 0.000000 -1.999998 -10.000000
v -2.500000 0.000002 -10.000000
v 0.000000 0.000002 -10.000000
v -2.500000 -1.999998 -10.000000
v -2.500000 -0.000002 10.000000
v -15.000000 0.000002 -10.000000
v -15.000000 -0.000002 10.000000
v 0.000000 -2.000002 10.000000
v -2.500000 -2.000002 10.000000
v 2.500000 -2.000002 10.000000
v 0.000000 -0.000002 10.000000
v 2.500000 -1.999998 -10.000000
v 15.000000 0.000002 -10.000000
v 2.500000 0.000001 -5.000000
v -2.500000 0.000001 -5.000000
v -2.500000 0.000001 -6.000000
v -2.500000 0.000001 -4.000000
v 2.500000 0.000001 -6.000000
v 2.500000 0.000001 -4.000000
v 2.500000 0.300001 -4.000000
v 2.500000 0.000001 -3.700000
v -2.500000 0.300001 -4.000000
v -2.500000 0.300001 -3.700000
v -2.500000 0.000001 -3.700000
v 2.500000 0.300001 -3.700000
v 2.500000 0.000001 -6.300000
v 2.500000 0.300001 -6.000000
v -2.500000 0.300001 -6.000000
v -2.500000 0.300001 -6.300000
v -2.500000 0.000001 -6.300000
v 2.500000 0.300001 -6.300000
v 2.500000 -0.000001 5.000000
v -2.500000 -0.000001 5.000000
v -2.500000 -0.000001 4.000000
v -2.500000 -0.000001 6.000000
v 2.500000 -0.000001 4.000000
v 2.500000 -0.000001 6.000000
v 2.500000 0.299999 6.000000
v 2.500000 -0.000001 6.300000
v -2.500000 0.299999 6.000000
v -2.500000 0.299999 6.300000
v -2.500000 -0.000001 6.300000
v 2.500000 0.299999 6.300000
v 2.500000 -0.000001 3.700000
v 2.500000 0.299999 4.000000
v -2.500000 0.299999 4.000000
v -2.500000 0.299999 3.700000
v -2.500000 -0.000001 3.700000
v 2.500000 0.299999 3.700000
vt 0.750000 1.000000
vt 1.000000 0.000000
vt 0.750000 0.000000
vt 0.000000 0.000000
vt 0.000000 0.000000
vt 0.000000 0.000000
vt 0.250000 1.000000
vt 0.250000 0.000000
vt 0.250000 1.000000
vt 0.000000 1.000000
vt 0.000000 0.000000
vt 0.500000 0.000000
vt 0.250000 0.000000
vt 0.500000 1.000000
vt 0.750000 0.000000
vt 0.000000 0.000000
vt 0.000000 0.000000
vt 0.000000 0.000000
vt 0.000000 0.000000
vt 0.000000 0.000000
vt 0.000000 0.000000
vt 0.000000 0.000000
vt 1.000000 1.000000
vt 0.000000 0.000000
vt 0.750000 1.000000
vt 0.000000 0.000000
vt 0.000000 1.000000
vt 1.000000 0.500000
vt 0.000000 0.500000
vt 0.000000 1.000000
vt 1.000000 1.000000
vt 1.000000 1.000000
vt 0.000000 1.000000
vt 1.000000 1.000000
vt 0.000000 0.000000
vt 0.000000 0.000000
vt 0.000000 0.000000
vt 0.000000 0.000000
vt 0.000000 0.000000
vt 0.000000 0.000000
vt 0.000000 1.000000
vt 1.000000 1.000000
vt 0.000000 0.000000
vt 0.000000 0.000000
vt 0.000000 0.000000
vt 0.000000 0.000000
vt 0.000000 0.000000
vt 1.000000 1.000000
vt 0.000000 1.000000
vt 0.000000 1.000000
vt 0.000000 0.000000
vt 0.000000 0.000000
vt 0.000000 0.000000
vt 1.000000 1.000000
vt 0.000000 0.000000
vt 0.000000 0.000000
vt 0.000000 1.000000
vt 1.000000 0.500000
vt 0.000000 0.500000
vt 0.000000 1.000000
vt 1.000000 1.000000
vt 1.000000 1.000000
vt 0.000000 1.000000
vt 1.000000 1.000000
vt 0.000000 0.000000
vt 0.000000 0.000000
vt 0.000000 0.000000
vt 0.000000 0.000000
vt 0.000000 0.000000
vt 0.000000 0.000000
vt 0.000000 1.000000
vt 1.000000 1.000000
vt 0.000000 0.000000
vt 0.000000 0.000000
vt 0.000000 0.000000
vt 0.000000 0.000000
vt 0.000000 0.000000
vt 1.000000 1.000000
vt 0.000000 1.000000
vt 0.000000 1.000000
vt 0.000000 0.000000
vt 0.000000 0.000000
vt 0.000000 0.000000
vt 1.000000 1.000000
vt 0.000000 0.000000
vt 0.000000 0.000000
vn 0.0000 -1.0000 -0.0000
vn 0.0000 0.0000 -1.0000
vn -1.0000 0.0000 0.0000
vn 0.0000 0.0000 1.0000
vn 1.0000 0.0000 0.0000
vn 0.0000 1.0000 0.0000
usemtl Default_OBJ
s 1
f 1/1/1 2/2/1 3/3/1
f 4/4/2 5/5/2 6/6/2
f 7/7/3 8/8/3 5/9/3
f 9/10/1 8/8/1 10/11/1
f 7/7/1 11/12/1 12/13/1
f 4/14/1 13/15/1 11/12/1
f 12/16/4 14/17/4 8/18/4
f 13/15/5 1/1/5 3/3/5
f 11/19/4 3/20/4 14/17/4
f 15/21/2 6/6/2 1/22/2
f 1/1/1 16/23/1 2/2/1
f 4/4/2 7/24/2 5/5/2
f 7/7/3 12/13/3 8/8/3
f 9/10/1 5/9/1 8/8/1
f 7/7/1 4/14/1 11/12/1
f 4/14/1 15/25/1 13/15/1
f 12/16/4 11/19/4 14/17/4
f 13/15/5 15/25/5 1/1/5
f 11/19/4 13/26/4 3/20/4
f 15/21/2 4/4/2 6/6/2
f 20/27/6 17/28/6 18/29/6
f 17/28/6 19/30/6 18/29/6
f 17/28/6 21/31/6 19/30/6
f 20/27/6 22/32/6 17/28/6
f 25/33/2 23/34/2 22/32/2
f 23/35/5 24/36/5 22/37/5
f 25/33/2 22/32/2 20/27/2
f 26/38/3 25/39/3 20/40/3
f 26/41/6 23/34/6 25/33/6
f 26/41/6 28/42/6 23/34/6
f 28/43/4 26/38/4 27/44/4
f 26/38/3 20/40/3 27/44/3
f 23/35/5 28/43/5 24/36/5
f 28/43/4 27/44/4 24/36/4
f 29/45/5 30/46/5 21/47/5
f 21/31/4 30/48/4 31/49/4
f 21/31/4 31/49/4 19/30/4
f 30/48/6 32/50/6 31/49/6
f 19/51/3 31/52/3 32/53/3
f 30/48/6 34/54/6 32/50/6
f 19/51/3 32/53/3 33/55/3
f 33/55/2 32/53/2 34/56/2
f 33/55/2 34/56/2 29/45/2
f 29/45/5 34/56/5 30/46/5
f 38/57/6 35/58/6 36/59/6
f 35/58/6 37/60/6 36/59/6
f 35/58/6 39/61/6 37/60/6
f 38/57/6 40/62/6 35/58/6
f 43/63/2 41/64/2 40/62/2
f 41/65/5 42/66/5 40/67/5
f 43/63/2 40/62/2 38/57/2
f 44/68/3 43/69/3 38/70/3
f 44/71/6 41/64/6 43/63/6
f 44/71/6 46/72/6 41/64/6
f 46/73/4 44/68/4 45/74/4
f 44/68/3 38/70/3 45/74/3
f 41/65/5 46/73/5 42/66/5
f 46/73/4 45/74/4 42/66/4
f 47/75/5 48/76/5 39/77/5
f 39/61/4 48/78/4 49/79/4
f 39/61/4 49/79/4 37/60/4
f 48/78/6 50/80/6 49/79/6
f 37/81/3 49/82/3 50/83/3
f 48/78/6 52/84/6 50/80/6
f 37/81/3 50/83/3 51/85/3
f 51/85/2 50/83/2 52/86/2
f 51/85/2 52/86/2 47/75/2
f 47/75/5 52/86/5 48/76/5
